<svg xmlns="http://www.w3.org/2000/svg" viewBox="0 0 360 80" fill="none">
  <!-- Circle with house icon -->
  <g transform="translate(8, 8)">
    <!-- Outer circle -->
    <circle cx="32" cy="32" r="30" stroke="#1e3a5f" stroke-width="2" fill="none"/>
    <!-- House roof (pitched) -->
    <path d="M15 35L30 20L45 35" stroke="#1e3a5f" stroke-width="2" fill="none" stroke-linecap="round" stroke-linejoin="round"/>
    <!-- House body -->
    <rect x="18" y="35" width="24" height="16" stroke="#1e3a5f" stroke-width="2" fill="none"/>
    <!-- Door (right side archway) -->
    <path d="M34 51V40C34 38.5 35.5 37 37 37C38.5 37 40 38.5 40 40V51" stroke="#1e3a5f" stroke-width="2" fill="none"/>
    <!-- Window (left side) -->
    <rect x="22" y="38" width="7" height="6" stroke="#1e3a5f" stroke-width="1.5" fill="none"/>
  </g>

  <!-- ADUAtlas.com text - paths for crisp rendering at all sizes -->
  <!-- Using a clean serif-style approach via path outlines -->
  <g fill="#1e3a5f">
    <!-- "ADUAtlas.com" main title -->
    <!-- A -->
    <path d="M88 18h1.2l8.4 22h-3.8l-1.8-5H84l-1.8 5h-3.6l8.4-22h1zm-3 14h7.6l-3.8-10.6L85 32z" transform="translate(0,0)"/>
    <!-- D -->
    <path d="M100 18h6.4c6.8 0 11 4.6 11 11s-4.2 11-11 11H100V18zm3.4 3.2v15.6h3c4.8 0 7.4-3.4 7.4-7.8s-2.6-7.8-7.4-7.8h-3z"/>
    <!-- U -->
    <path d="M120 18h3.4v14.2c0 3.6 2 5.6 5 5.6s5-2 5-5.6V18h3.4v14.6c0 5.6-3.6 8.4-8.4 8.4s-8.4-2.8-8.4-8.4V18z"/>
    <!-- A -->
    <path d="M142 18h1.2l8.4 22h-3.8l-1.8-5h-8.4l-1.8 5h-3.6l8.4-22h1.4zm-3 14h7.6l-3.8-10.6L139 32z"/>
    <!-- t -->
    <path d="M153 25.5h-2.4V23h2.4v-4h3.2v4h3.6v2.5h-3.6v9.2c0 1.4.5 2 1.8 2 .6 0 1.2-.1 1.8-.4v2.8c-.8.3-1.7.5-2.8.5-2.8 0-4-1.6-4-4.4V25.5z"/>
    <!-- l -->
    <path d="M162 17h3.2v23h-3.2V17z"/>
    <!-- a -->
    <path d="M168.5 33.6c0-4.6 3.2-6.8 7.6-7.2l3.2-.2v-.6c0-2-1.2-3.2-3.4-3.2-2 0-3.2 1-3.4 2.6h-3.2c.3-3.2 3-5.4 6.8-5.4 4 0 6.4 2.4 6.4 6.2V40h-3.2l-.3-2.4c-1.2 1.6-3 2.8-5.2 2.8-2.8 0-5.3-1.6-5.3-6.8zm10.8-1.8l-2.8.2c-2.8.2-4.4 1.2-4.4 3.4 0 1.6 1.2 2.8 3 2.8 2.4 0 4.2-1.6 4.2-4.6v-1.8z"/>
    <!-- s -->
    <path d="M186 36.6h3.4c.3 1.4 1.4 2.4 3.4 2.4 1.8 0 2.8-.8 2.8-2s-1.2-1.8-3.6-2.2c-3.2-.8-5.6-1.8-5.6-5 0-3.2 2.6-5 6-5 3.6 0 5.8 2 6.2 4.8h-3.4c-.3-1.2-1.2-2-2.8-2-1.6 0-2.6.6-2.6 1.8 0 1.3 1.1 1.6 3.4 2.2 3.2.8 5.8 1.8 5.8 5.2 0 3.2-2.8 5.2-6.4 5.2-3.6 0-6.2-2.2-6.6-5.4z"/>
    <!-- . -->
    <path d="M201 36.5h3.8V40H201v-3.5z"/>
    <!-- c -->
    <path d="M207 31c0-5.4 3.4-8.6 7.4-8.6 3.2 0 5.4 1.8 6.2 4.6h-3.4c-.5-1.2-1.5-2-3-2-2.4 0-4 2-4 6s1.6 6 4 6c1.5 0 2.5-.8 3-2h3.4c-.8 2.8-3 4.6-6.2 4.6-4 0-7.4-3.2-7.4-8.6z"/>
    <!-- o -->
    <path d="M222.5 31c0-5.4 3.4-8.6 7.5-8.6s7.5 3.2 7.5 8.6-3.4 8.6-7.5 8.6-7.5-3.2-7.5-8.6zm11.6 0c0-4-1.6-6-4.1-6s-4.1 2-4.1 6 1.6 6 4.1 6 4.1-2 4.1-6z"/>
    <!-- m -->
    <path d="M240 23h3l.2 2.4c.8-1.6 2.4-2.8 4.4-2.8 2.2 0 3.6 1.2 4.2 3 1-1.8 2.6-3 4.8-3 3 0 4.8 2.2 4.8 5.6V40h-3.2v-11c0-2.2-.8-3.4-2.6-3.4-2 0-3.2 1.6-3.2 4V40h-3.2v-11c0-2.2-.8-3.4-2.6-3.4-2 0-3.2 1.6-3.2 4V40H240V23z"/>
  </g>

  <!-- Tagline: US ADU LISTINGS -->
  <g fill="#1e3a5f">
    <text x="82" y="54" font-family="'Georgia','Times New Roman',serif" font-size="7.5" font-weight="400" letter-spacing="3.5" fill="#1e3a5f">US ADU LISTINGS</text>
    <text x="82" y="64" font-family="'Georgia','Times New Roman',serif" font-size="7.5" font-weight="400" letter-spacing="3.5" fill="#1e3a5f">ZONING &amp; GUIDELINES</text>
  </g>
</svg>
