<svg xmlns="http://www.w3.org/2000/svg" viewBox="0 0 320 72" fill="none">
  <!-- Map Pin with House -->
  <g transform="translate(2, 2)">
    <!-- Pin outer shape -->
    <path d="M30 0C17.85 0 8 9.85 8 22C8 38.5 30 60 30 60C30 60 52 38.5 52 22C52 9.85 42.15 0 30 0Z" fill="#2F5D50"/>
    <!-- Pin inner circle highlight -->
    <circle cx="30" cy="20" r="16" fill="#3D7A6A" opacity="0.3"/>
    <!-- House body -->
    <rect x="21" y="22" width="18" height="12" rx="1" fill="white"/>
    <!-- House roof -->
    <path d="M18 23L30 13L42 23H18Z" fill="white"/>
    <!-- Door -->
    <rect x="27" y="27" width="6" height="7" rx="0.5" fill="#2F5D50"/>
    <!-- Window left -->
    <rect x="22.5" y="24.5" width="4" height="3.5" rx="0.5" fill="#2F5D50" opacity="0.6"/>
    <!-- Window right -->
    <rect x="33.5" y="24.5" width="4" height="3.5" rx="0.5" fill="#2F5D50" opacity="0.6"/>
    <!-- Chimney -->
    <rect x="36" y="14" width="3.5" height="7" rx="0.5" fill="white"/>
  </g>
  
  <!-- "ADU" text as paths - bold -->
  <g fill="#2F5D50" transform="translate(62, 12)">
    <!-- A -->
    <path d="M0 28h5.2l1.8-5.4h10l1.8 5.4H24L14.4 0h-5.2L0 28zm8.6-10.2l3.4-10.2 3.4 10.2H8.6z"/>
    <!-- D -->
    <path d="M28 0h8.4c8 0 13.2 5.4 13.2 14s-5.2 14-13.2 14H28V0zm5 4.6v18.8h3.4c5.2 0 8.2-3.8 8.2-9.4s-3-9.4-8.2-9.4H33z"/>
    <!-- U -->
    <path d="M54 0h5v18c0 4.2 2.4 6.8 6 6.8s6-2.6 6-6.8V0h5v18.4c0 6.8-4.4 10.6-11 10.6S54 25.2 54 18.4V0z"/>
  </g>
  
  <!-- "Atlas" text as paths - medium weight -->
  <g fill="#1E1E1E" transform="translate(62, 42)">
    <!-- A -->
    <path d="M0 26h4.6l1.6-4.8h9l1.6 4.8h4.6L13 0H8.2L0 26zm7.6-9l3-9 3 9H7.6z"/>
    <!-- t -->
    <path d="M24 6h-3V2h4v4h4.5v3.6H25v10c0 1.8.7 2.6 2.2 2.6.8 0 1.6-.2 2.3-.5v3.6c-1 .4-2.1.7-3.4.7-3.4 0-5.1-2-5.1-5.6V9.6H24V6z"/>
    <!-- l -->
    <path d="M33 0h4v26h-4V0z"/>
    <!-- a -->
    <path d="M41 17.4c0-5.6 3.8-8.2 9.2-8.6l4-.3V7.8c0-2.4-1.4-3.8-4-3.8-2.4 0-3.8 1.2-4.2 3.2h-4.2C42.2 3.4 45.4.8 50.2.8c4.8 0 8 2.8 8 7.4V26h-4l-.4-2.8C52.4 25 50.4 26.6 47.6 26.6 44 26.6 41 24.6 41 17.4zm13.2-2.2l-3.4.3c-3.4.3-5.4 1.4-5.4 4 0 2 1.4 3.4 3.6 3.4 3 0 5.2-2 5.2-5.6v-2.1z"/>
    <!-- s -->
    <path d="M62 20.6h4.2c.4 1.8 1.8 3 4.2 3 2.2 0 3.4-1 3.4-2.4 0-1.6-1.4-2.2-4.4-2.8-4-1-7-2.2-7-6.2 0-3.8 3.2-6.2 7.4-6.2 4.4 0 7.2 2.4 7.6 6h-4.2c-.4-1.6-1.6-2.6-3.6-2.6-2 0-3.2.8-3.2 2.2 0 1.6 1.4 2 4.2 2.6 4 1 7.2 2.2 7.2 6.4 0 4-3.4 6.4-7.8 6.4-4.6 0-7.6-2.6-8-6.4z"/>
  </g>
</svg>
